<svg aria-hidden="true" style="position: absolute; width: 0; height: 0; overflow: hidden;" version="1.1" xmlns="http://www.w3.org/2000/svg" xmlns:xlink="http://www.w3.org/1999/xlink">
<defs>
<symbol id="icon-door" viewBox="0 0 35 32">
<path fill="#179d2e" style="fill: var(--color1, #179d2e)" d="M31.68 28.442v-28.442h-28.16v28.442h-3.52v3.558h35.2v-3.558h-3.52zM14.080 28.442v-24.886h7.040v24.886h-7.040z"></path>
</symbol>
<symbol id="icon-Electrical" viewBox="0 0 36 32">
<path fill="#f02e2c" style="fill: var(--color2, #f02e2c)" d="M31.078 19.44c0-0.922-0.813-1.677-1.808-1.677h-3.616v3.354h3.616c0.995 0 1.808-0.755 1.808-1.677zM29.27 24.467h-3.616v3.354h3.616c0.995 0 1.808-0.755 1.808-1.677s-0.813-1.677-1.808-1.677zM14.803 19.44h-3.616v6.704h3.616c0 1.843 1.629 3.35 3.616 3.35h5.427v-13.408h-5.427c-1.987 0-3.616 1.51-3.616 3.354z"></path>
<path fill="#f02e2c" style="fill: var(--color2, #f02e2c)" d="M4.122 17.216c0-1.952 1.456-3.549 3.238-3.549h2.426c3.123 0 5.664-2.784 5.664-6.208s-2.541-6.208-5.664-6.208h-5.664c-0.89 0-1.616 0.797-1.616 1.773s0.726 1.773 1.616 1.773h5.664c1.344 0 2.429 1.19 2.429 2.662s-1.085 2.659-2.429 2.659h-2.426c-3.578 0-6.474 3.178-6.474 7.098s2.896 7.094 6.474 7.094h3.235v-3.546h-3.235c-1.782 0-3.238-1.597-3.238-3.549z"></path>
</symbol>
<symbol id="icon-Frame-11" viewBox="0 0 39 32">
<path fill="#f5af23" style="fill: var(--color3, #f5af23)" d="M20.621 4c0-2.221 1.587-4 3.568-4h6.246c1.965 0 3.568 1.798 3.568 4v4.32c-2.070 0.819-3.568 3.018-3.568 5.619v4.061h-9.814v-14zM9.021 13.92v4.080h9.814v-14c0-2.221-1.587-4-3.571-4h-6.243c-1.965 0-3.571 1.798-3.571 4v4.298c2.070 0.822 3.571 3.040 3.571 5.622zM35.184 10.058c-1.75 0.32-2.963 2.182-2.963 4.182v5.76h-24.986v-6c0-1.062-0.378-2.080-1.046-2.829-0.669-0.752-1.578-1.171-2.525-1.171-0.944 0-1.853 0.419-2.522 1.171-0.669 0.749-1.046 1.766-1.046 2.829v10c0 2.198 1.606 4 3.568 4v4h3.571v-4h24.986v4h3.568v-4c1.965 0 3.571-1.802 3.571-4v-10c0-2.422-1.946-4.362-4.176-3.942z"></path>
</symbol>
<symbol id="icon-home" viewBox="0 0 37 32">
<path fill="#f02e2c" style="fill: var(--color2, #f02e2c)" d="M18.515-0.16l-18.602 16.941h5.581v15.059h26.045v-15.059h5.581l-18.605-16.941zM18.515 10.192c4.355 0 8.298 1.75 11.162 4.592l-2.23 2.221c-2.381-2.368-5.59-3.686-8.931-3.67-3.494 0-6.659 1.392-8.928 3.67l-2.23-2.221c2.979-2.954 6.989-4.605 11.158-4.592zM18.515 16.461c2.605 0 4.97 1.053 6.698 2.765l-2.23 2.205c-1.194-1.181-2.797-1.837-4.467-1.827-1.747 0-3.328 0.698-4.464 1.827l-2.23-2.205c1.786-1.776 4.192-2.768 6.694-2.765zM18.515 22.746c1.75 0 3.165 1.395 3.165 3.126s-1.414 3.142-3.165 3.142c-1.747 0-3.162-1.411-3.162-3.142s1.414-3.126 3.162-3.126z"></path>
</symbol>
<symbol id="icon-instalation" viewBox="0 0 31 32">
<path fill="#f5af23" style="fill: var(--color3, #f5af23)" d="M6.294 19.040h3.133l4.701 4.8h-3.133l-4.701-4.8zM3.162 3.040h1.568v-1.6c0-0.426 0.163-0.832 0.458-1.133s0.694-0.467 1.107-0.467h6.266c0.416 0 0.816 0.166 1.11 0.467 0.291 0.301 0.458 0.707 0.458 1.133v1.6h3.133v-1.6c0-0.426 0.163-0.832 0.458-1.133s0.694-0.467 1.107-0.467h6.266c0.416 0 0.816 0.166 1.11 0.467 0.291 0.301 0.458 0.707 0.458 1.133v1.6h1.565c0.832 0 1.629 0.336 2.218 0.934 0.586 0.602 0.918 1.414 0.918 2.266v20.8c0 0.848-0.333 1.661-0.918 2.262-0.589 0.598-1.386 0.938-2.218 0.938v1.6h-4.698v-1.6h-15.664v1.6h-4.701v-1.6c-0.829 0-1.626-0.339-2.214-0.938-0.589-0.602-0.918-1.414-0.918-2.262v-20.8c0-0.851 0.33-1.664 0.918-2.266 0.589-0.598 1.386-0.934 2.214-0.934zM25.091 7.84c0.416 0 0.816 0.166 1.11 0.467 0.291 0.301 0.458 0.707 0.458 1.133 0 0.422-0.166 0.829-0.458 1.13-0.294 0.301-0.694 0.47-1.11 0.47-0.413 0-0.813-0.17-1.107-0.47-0.291-0.301-0.458-0.707-0.458-1.13 0-0.426 0.166-0.832 0.458-1.133 0.294-0.301 0.694-0.467 1.107-0.467zM18.826 7.84c0.416 0 0.816 0.166 1.11 0.467 0.291 0.301 0.458 0.707 0.458 1.133 0 0.422-0.166 0.829-0.458 1.13-0.294 0.301-0.694 0.47-1.11 0.47-0.413 0-0.813-0.17-1.107-0.47s-0.458-0.707-0.458-1.13c0-0.426 0.163-0.832 0.458-1.133s0.694-0.467 1.107-0.467zM28.224 6.24h-25.062v6.4h25.062v-6.4zM3.162 27.040h25.062v-11.2h-25.062v11.2zM6.294 7.84c0.416 0 0.816 0.166 1.107 0.467 0.294 0.301 0.461 0.707 0.461 1.133 0 0.422-0.166 0.829-0.461 1.13-0.291 0.301-0.691 0.47-1.107 0.47-0.413 0-0.813-0.17-1.107-0.47s-0.458-0.707-0.458-1.13c0-0.426 0.163-0.832 0.458-1.133s0.694-0.467 1.107-0.467zM17.261 19.040h3.133l4.698 4.8h-3.133l-4.698-4.8z"></path>
</symbol>
<symbol id="icon-paint" viewBox="0 0 29 32">
<path fill="#0177b8" style="fill: var(--color4, #0177b8)" d="M25.869 0h-17.872c-1.792 0-3.251 1.501-3.251 3.347v5.024c0 1.846 1.459 3.347 3.251 3.347h17.872c1.792 0 3.251-1.501 3.251-3.347v-5.024c0-1.846-1.459-3.347-3.251-3.347z"></path>
<path fill="#0177b8" style="fill: var(--color4, #0177b8)" d="M17.491 20.966v-3.152c0-1.738-1.421-3.152-3.165-3.152h-11.069v-9.456c-1.744 0-3.162 1.414-3.162 3.152v6.304c0 1.738 1.418 3.152 3.162 3.152h11.069v3.152c-0.419 0-0.819 0.166-1.117 0.461-0.298 0.298-0.464 0.698-0.464 1.117v7.878c0 0.419 0.166 0.819 0.464 1.114 0.298 0.298 0.698 0.464 1.117 0.464h3.165c0.419 0 0.822-0.166 1.117-0.464 0.298-0.294 0.464-0.694 0.464-1.114v-7.878c0-0.419-0.166-0.819-0.464-1.117-0.294-0.294-0.698-0.461-1.117-0.461z"></path>
</symbol>
<symbol id="icon-picture" viewBox="0 0 37 32">
<path fill="#0177b8" style="fill: var(--color4, #0177b8)" d="M0 0v32h37.44v-32h-37.44zM2.87 2.989h31.696v26.019h-31.696v-26.019zM9.405 6.746c-0.896 0-1.648 0.31-2.256 0.934s-0.915 1.395-0.915 2.31c0 0.874 0.307 1.622 0.915 2.246s1.36 0.938 2.256 0.938c0.851 0 1.584-0.314 2.192-0.938 0.611-0.624 0.915-1.373 0.915-2.246 0-0.915-0.304-1.686-0.915-2.31-0.608-0.624-1.341-0.934-2.192-0.934zM22.874 8.326l-7.194 11.174-3.818-3.248-5.629 7.488v2.186h24.97v-8.778l-8.33-8.822z"></path>
</symbol>
<symbol id="icon-Tap" viewBox="0 0 30 32">
<path fill="#fff" style="fill: var(--color5, #fff)" d="M-3.011-3.2h36.099v38.4h-36.099v-38.4z"></path>
<path fill="#179d2e" style="fill: var(--color1, #179d2e)" d="M25.76 15.507h-6.17c-0.278 0-0.557-0.032-0.829-0.086-0.272-0.058-0.538-0.144-0.797-0.256-0.256-0.115-0.502-0.256-0.733-0.419-0.234-0.163-0.445-0.352-0.643-0.56-0.195-0.211-0.371-0.438-0.528-0.685-0.154-0.246-0.285-0.509-0.39-0.781s-0.186-0.554-0.243-0.848c-0.054-0.288-0.080-0.582-0.080-0.88v-6.563c0-0.294 0.026-0.589 0.080-0.88 0.058-0.291 0.138-0.573 0.243-0.848 0.106-0.272 0.237-0.531 0.39-0.778 0.157-0.25 0.333-0.474 0.528-0.685 0.198-0.211 0.41-0.397 0.643-0.563 0.23-0.163 0.477-0.301 0.733-0.416 0.259-0.112 0.525-0.198 0.797-0.256s0.55-0.086 0.829-0.086h6.17c0.278 0 0.554 0.029 0.826 0.086 0.275 0.058 0.541 0.144 0.797 0.256 0.259 0.115 0.502 0.253 0.733 0.416 0.234 0.166 0.448 0.352 0.643 0.563s0.374 0.435 0.528 0.685c0.154 0.246 0.285 0.506 0.394 0.778 0.106 0.275 0.186 0.557 0.24 0.848s0.083 0.586 0.083 0.88v6.563c0 0.298-0.029 0.592-0.083 0.88-0.054 0.294-0.134 0.576-0.24 0.848-0.109 0.272-0.24 0.534-0.394 0.781s-0.333 0.474-0.528 0.685c-0.195 0.208-0.41 0.397-0.643 0.56-0.23 0.163-0.474 0.304-0.733 0.419-0.256 0.112-0.522 0.198-0.797 0.256-0.272 0.054-0.547 0.086-0.826 0.086zM19.59 2.378c-0.128 0-0.253 0.013-0.378 0.038-0.125 0.029-0.246 0.067-0.362 0.118-0.118 0.051-0.227 0.115-0.333 0.189s-0.205 0.16-0.294 0.256c-0.090 0.093-0.17 0.198-0.24 0.31s-0.128 0.23-0.176 0.355c-0.048 0.125-0.086 0.253-0.112 0.384-0.022 0.134-0.035 0.266-0.035 0.4v6.563c0 0.138 0.013 0.269 0.035 0.4 0.026 0.134 0.064 0.262 0.112 0.387s0.106 0.243 0.176 0.355c0.070 0.112 0.15 0.214 0.24 0.31 0.090 0.093 0.189 0.179 0.294 0.253 0.106 0.077 0.214 0.138 0.333 0.192 0.115 0.051 0.237 0.090 0.362 0.115s0.25 0.042 0.378 0.042h6.17c0.125 0 0.253-0.016 0.374-0.042 0.125-0.026 0.246-0.064 0.362-0.115 0.118-0.054 0.23-0.115 0.336-0.192 0.102-0.074 0.202-0.16 0.291-0.253 0.090-0.096 0.17-0.198 0.24-0.31s0.128-0.23 0.176-0.355c0.051-0.125 0.086-0.253 0.112-0.387 0.022-0.131 0.035-0.262 0.035-0.4v-6.563c0-0.134-0.013-0.266-0.035-0.4-0.026-0.131-0.061-0.259-0.112-0.384-0.048-0.125-0.106-0.243-0.176-0.355s-0.15-0.218-0.24-0.31c-0.090-0.096-0.189-0.182-0.291-0.256-0.106-0.074-0.218-0.138-0.336-0.189-0.115-0.051-0.237-0.090-0.362-0.118-0.122-0.026-0.25-0.038-0.374-0.038h-6.17z"></path>
<path fill="#179d2e" style="fill: var(--color1, #179d2e)" d="M8.79 15.507h-4.627c-0.278 0-0.554-0.032-0.829-0.086-0.272-0.058-0.538-0.144-0.794-0.256-0.259-0.115-0.502-0.256-0.736-0.419-0.23-0.163-0.445-0.352-0.64-0.56-0.198-0.211-0.374-0.438-0.528-0.685-0.157-0.246-0.285-0.509-0.394-0.781-0.106-0.272-0.186-0.554-0.24-0.848-0.054-0.288-0.080-0.582-0.080-0.88v-4.922c0-0.298 0.026-0.589 0.080-0.88s0.134-0.573 0.24-0.848c0.109-0.272 0.237-0.531 0.394-0.778 0.154-0.25 0.33-0.477 0.528-0.688 0.195-0.208 0.41-0.394 0.64-0.56 0.234-0.163 0.477-0.301 0.736-0.416 0.256-0.115 0.522-0.198 0.794-0.256 0.275-0.058 0.55-0.090 0.829-0.090h4.627c0.278 0 0.554 0.032 0.829 0.090 0.272 0.058 0.538 0.141 0.794 0.256 0.259 0.115 0.502 0.253 0.736 0.416 0.23 0.166 0.445 0.352 0.643 0.56 0.195 0.211 0.371 0.438 0.528 0.688 0.154 0.246 0.285 0.506 0.39 0.778 0.106 0.275 0.186 0.557 0.24 0.848 0.058 0.291 0.083 0.582 0.083 0.88v4.922c0 0.298-0.026 0.592-0.083 0.88-0.054 0.294-0.134 0.576-0.24 0.848s-0.237 0.534-0.39 0.781c-0.157 0.246-0.333 0.474-0.528 0.685-0.198 0.208-0.413 0.397-0.643 0.56-0.234 0.163-0.477 0.304-0.736 0.419-0.256 0.112-0.522 0.198-0.794 0.256-0.275 0.054-0.55 0.086-0.829 0.086zM4.163 4.019c-0.125 0-0.253 0.013-0.378 0.038-0.122 0.029-0.243 0.067-0.362 0.118-0.115 0.051-0.227 0.115-0.333 0.189-0.106 0.077-0.202 0.16-0.291 0.256-0.090 0.093-0.17 0.198-0.24 0.31s-0.131 0.23-0.179 0.355c-0.048 0.125-0.083 0.253-0.109 0.384-0.022 0.131-0.035 0.266-0.035 0.4v4.922c0 0.138 0.013 0.269 0.035 0.4 0.026 0.134 0.061 0.262 0.109 0.387s0.109 0.243 0.179 0.355c0.070 0.112 0.15 0.214 0.24 0.31 0.090 0.093 0.186 0.179 0.291 0.253 0.106 0.077 0.218 0.138 0.333 0.192 0.118 0.051 0.24 0.090 0.362 0.115 0.125 0.026 0.253 0.042 0.378 0.042h4.627c0.128 0 0.253-0.016 0.378-0.042s0.243-0.064 0.362-0.115c0.115-0.054 0.227-0.115 0.333-0.192 0.106-0.074 0.202-0.16 0.291-0.253 0.090-0.096 0.17-0.198 0.24-0.31s0.131-0.23 0.179-0.355c0.048-0.125 0.086-0.253 0.109-0.387 0.026-0.131 0.038-0.262 0.038-0.4v-4.922c0-0.134-0.013-0.269-0.038-0.4-0.022-0.131-0.061-0.259-0.109-0.384s-0.109-0.243-0.179-0.355c-0.070-0.112-0.15-0.218-0.24-0.31-0.090-0.096-0.186-0.179-0.291-0.256-0.106-0.074-0.218-0.138-0.333-0.189-0.118-0.051-0.237-0.090-0.362-0.118-0.125-0.026-0.25-0.038-0.378-0.038h-4.627z"></path>
<path fill="#179d2e" style="fill: var(--color1, #179d2e)" d="M24.214 31.917h-4.624c-0.278 0-0.557-0.029-0.829-0.086s-0.538-0.144-0.797-0.256c-0.256-0.115-0.502-0.253-0.733-0.419-0.234-0.163-0.445-0.352-0.643-0.56-0.195-0.211-0.371-0.438-0.528-0.685-0.154-0.246-0.285-0.506-0.39-0.781-0.106-0.272-0.186-0.554-0.243-0.845-0.054-0.291-0.080-0.586-0.080-0.88v-4.925c0-0.298 0.026-0.589 0.080-0.88 0.058-0.291 0.138-0.573 0.243-0.848 0.106-0.272 0.237-0.531 0.39-0.778 0.157-0.246 0.333-0.477 0.528-0.685 0.198-0.208 0.41-0.397 0.643-0.56 0.23-0.166 0.477-0.304 0.733-0.419 0.259-0.112 0.525-0.198 0.797-0.256s0.55-0.086 0.829-0.086h4.624c0.282 0 0.557 0.029 0.829 0.086 0.275 0.058 0.538 0.144 0.797 0.256 0.256 0.115 0.502 0.253 0.733 0.419 0.234 0.163 0.445 0.352 0.643 0.56s0.374 0.438 0.528 0.685c0.154 0.246 0.285 0.506 0.39 0.778 0.109 0.275 0.189 0.557 0.243 0.848s0.080 0.582 0.080 0.88v4.925c0 0.294-0.026 0.589-0.080 0.88s-0.134 0.573-0.243 0.845c-0.106 0.275-0.237 0.534-0.39 0.781s-0.33 0.474-0.528 0.685c-0.198 0.208-0.41 0.397-0.643 0.56-0.23 0.166-0.477 0.304-0.733 0.419-0.259 0.112-0.522 0.198-0.797 0.256-0.272 0.058-0.547 0.086-0.829 0.086zM19.59 20.429c-0.128 0-0.253 0.013-0.378 0.038-0.125 0.029-0.246 0.067-0.362 0.118-0.118 0.051-0.227 0.115-0.333 0.189-0.106 0.077-0.205 0.16-0.294 0.256s-0.17 0.198-0.24 0.31c-0.070 0.112-0.128 0.23-0.176 0.355s-0.086 0.253-0.112 0.384c-0.022 0.131-0.035 0.266-0.035 0.4v4.925c0 0.134 0.013 0.266 0.035 0.4 0.026 0.131 0.064 0.259 0.112 0.384s0.106 0.243 0.176 0.355c0.070 0.112 0.15 0.214 0.24 0.31s0.189 0.179 0.294 0.253c0.106 0.077 0.214 0.141 0.333 0.192 0.115 0.051 0.237 0.090 0.362 0.115 0.125 0.029 0.25 0.042 0.378 0.042h4.624c0.128 0 0.253-0.013 0.378-0.042 0.125-0.026 0.246-0.064 0.362-0.115 0.118-0.051 0.23-0.115 0.333-0.192 0.106-0.074 0.205-0.157 0.294-0.253s0.17-0.198 0.24-0.31c0.070-0.112 0.128-0.23 0.179-0.355 0.045-0.125 0.083-0.253 0.109-0.384 0.022-0.134 0.035-0.266 0.035-0.4v-4.925c0-0.134-0.013-0.269-0.035-0.4-0.026-0.131-0.064-0.259-0.109-0.384-0.051-0.125-0.109-0.243-0.179-0.355s-0.15-0.214-0.24-0.31c-0.090-0.096-0.189-0.179-0.294-0.256-0.102-0.074-0.214-0.138-0.333-0.189-0.115-0.051-0.237-0.090-0.362-0.118-0.125-0.026-0.25-0.038-0.378-0.038h-4.624z"></path>
<path fill="#179d2e" style="fill: var(--color1, #179d2e)" d="M8.79 31.917h-4.627c-0.278 0-0.554-0.029-0.829-0.086-0.272-0.058-0.538-0.144-0.794-0.256-0.259-0.115-0.502-0.253-0.736-0.419-0.23-0.163-0.445-0.352-0.64-0.56-0.198-0.211-0.374-0.438-0.528-0.685-0.157-0.246-0.285-0.506-0.394-0.781-0.106-0.272-0.186-0.554-0.24-0.845s-0.080-0.586-0.080-0.88v-4.925c0-0.298 0.026-0.589 0.080-0.88s0.134-0.573 0.24-0.848c0.109-0.272 0.237-0.531 0.394-0.778 0.154-0.246 0.33-0.477 0.528-0.685 0.195-0.208 0.41-0.397 0.64-0.56 0.234-0.166 0.477-0.304 0.736-0.419 0.256-0.112 0.522-0.198 0.794-0.256 0.275-0.058 0.55-0.086 0.829-0.086h4.627c0.278 0 0.554 0.029 0.829 0.086 0.272 0.058 0.538 0.144 0.794 0.256 0.259 0.115 0.502 0.253 0.736 0.419 0.23 0.163 0.445 0.352 0.643 0.56 0.195 0.208 0.371 0.438 0.528 0.685 0.154 0.246 0.285 0.506 0.39 0.778 0.106 0.275 0.186 0.557 0.24 0.848 0.058 0.291 0.083 0.582 0.083 0.88v4.925c0 0.294-0.026 0.589-0.083 0.88-0.054 0.291-0.134 0.573-0.24 0.845-0.106 0.275-0.237 0.534-0.39 0.781-0.157 0.246-0.333 0.474-0.528 0.685-0.198 0.208-0.413 0.397-0.643 0.56-0.234 0.166-0.477 0.304-0.736 0.419-0.256 0.112-0.522 0.198-0.794 0.256-0.275 0.058-0.55 0.086-0.829 0.086zM4.163 20.429c-0.125 0-0.253 0.013-0.378 0.038-0.122 0.029-0.243 0.067-0.362 0.118-0.115 0.051-0.227 0.115-0.333 0.189-0.106 0.077-0.202 0.16-0.291 0.256s-0.17 0.198-0.24 0.31c-0.070 0.112-0.131 0.23-0.179 0.355s-0.083 0.253-0.109 0.384c-0.022 0.131-0.035 0.266-0.035 0.4v4.925c0 0.134 0.013 0.266 0.035 0.4 0.026 0.131 0.061 0.259 0.109 0.384s0.109 0.243 0.179 0.355c0.070 0.112 0.15 0.214 0.24 0.31s0.186 0.179 0.291 0.253c0.106 0.077 0.218 0.141 0.333 0.192 0.118 0.051 0.24 0.090 0.362 0.115 0.125 0.029 0.253 0.042 0.378 0.042h4.627c0.128 0 0.253-0.013 0.378-0.042 0.125-0.026 0.243-0.064 0.362-0.115 0.115-0.051 0.227-0.115 0.333-0.192 0.106-0.074 0.202-0.157 0.291-0.253s0.17-0.198 0.24-0.31c0.070-0.112 0.131-0.23 0.179-0.355s0.086-0.253 0.109-0.384c0.026-0.134 0.038-0.266 0.038-0.4v-4.925c0-0.134-0.013-0.269-0.038-0.4-0.022-0.131-0.061-0.259-0.109-0.384s-0.109-0.243-0.179-0.355c-0.070-0.112-0.15-0.214-0.24-0.31s-0.186-0.179-0.291-0.256c-0.106-0.074-0.218-0.138-0.333-0.189-0.118-0.051-0.237-0.090-0.362-0.118-0.125-0.026-0.25-0.038-0.378-0.038h-4.627z"></path>
</symbol>
<symbol id="icon-Vector1" viewBox="0 0 30 32">
<path fill="#179d2e" style="fill: var(--color1, #179d2e)" d="M13.939 0c-0.269 0-0.538 0.269-1.078 0.806v2.15h-3.261c-1.043-1.075-1.043-1.075-2.118 0s-1.075 1.075 0 2.15 1.075 1.075 2.070 0h3.309v2.15h2.154v-2.15h3.274c1.066 1.075 1.062 1.075 2.141 0 1.075-1.075 1.075-1.075 0-2.15-1.078-1.075-1.075-1.075-2.186 0h-3.229v-2.15c-0.538-0.538-0.806-0.806-1.075-0.806zM-0.051 5.242v17.21h2.154v-17.21h-2.154zM4.253 8.47l-1.075-1.078v12.909l1.075-1.075v-10.755zM13.939 8.336c-2.154 0-3.251 0-3.312 2.15h-5.296v6.454h4.346c1.034 1.075 2.109 2.15 4.262 2.15 2.15 0 3.226-1.075 4.304-2.15 4.304 0 4.304 0 4.304 2.15v2.15h6.454v-4.301c0-4.304-2.15-6.454-6.454-6.454h-5.382c0.026-2.15-1.075-2.15-3.226-2.15zM21.469 22.317v1.075h8.608v-1.075h-8.608zM25.773 24.47c0 0-2.608 3.472-2.15 5.51 0.285 1.261 0.858 2.019 2.15 2.019 1.296 0 1.869-0.758 2.154-2.019 0.458-2.038-2.154-5.51-2.154-5.51z"></path>
</symbol>
</defs>
</svg>
